<svg width="534" height="86" viewBox="0 0 534 86" fill="none" xmlns="http://www.w3.org/2000/svg">
<path d="M0.0301174 23.0301L1.20417 16.6126C1.36528 15.7321 2.13192 15.0932 3.02542 15.0932C3.02913 15.0932 3.03098 15.0932 3.03469 15.0932C3.93281 15.0969 4.69669 15.7441 4.85039 16.6283L15.4122 77.4789L69.2397 77.4807C70.5295 77.4807 71.723 76.9474 72.6036 75.9798C73.6128 74.8678 74.1748 73.2095 74.0396 71.7883C73.6452 68.3633 71.1693 65.8764 68.1564 65.8764H23.2352C22.3324 65.8764 21.5602 65.2254 21.4102 64.3338L10.8938 2.16106C10.803 1.62311 10.953 1.07313 11.3058 0.656467C11.6567 0.23981 12.1743 0 12.7187 0H57.6048C67.8444 0 77.8405 8.3276 79.8895 18.557L89.4801 65.5162C90.343 71.0142 89.0041 76.1826 85.7098 80.0723C82.4746 83.8917 77.7312 85.9954 72.3526 85.9954L71.4953 85.9926C71.4786 85.9926 71.4628 85.9935 71.4443 85.9935C68.5796 85.9963 13.7928 86 13.2215 86C11.1484 86 9.38177 84.5148 9.01511 82.4288L0.0217888 23.6412C-0.0106179 23.4393 -0.00599298 23.231 0.0301174 23.0301Z" fill="#85322E"/>
<path d="M130.376 38.72C132.328 39.136 133.896 40.112 135.08 41.648C136.264 43.152 136.856 44.88 136.856 46.832C136.856 49.648 135.864 51.888 133.88 53.552C131.928 55.184 129.192 56 125.672 56H109.976V22.304H125.144C128.568 22.304 131.24 23.088 133.16 24.656C135.112 26.224 136.088 28.352 136.088 31.04C136.088 33.024 135.56 34.672 134.504 35.984C133.48 37.296 132.104 38.208 130.376 38.72ZM118.184 35.936H123.56C124.904 35.936 125.928 35.648 126.632 35.072C127.368 34.464 127.736 33.584 127.736 32.432C127.736 31.28 127.368 30.4 126.632 29.792C125.928 29.184 124.904 28.88 123.56 28.88H118.184V35.936ZM124.232 49.376C125.608 49.376 126.664 49.072 127.4 48.464C128.168 47.824 128.552 46.912 128.552 45.728C128.552 44.544 128.152 43.616 127.352 42.944C126.584 42.272 125.512 41.936 124.136 41.936H118.184V49.376H124.232ZM159.425 22.304V56H151.217V22.304H159.425ZM195.373 38.72C197.325 39.136 198.893 40.112 200.077 41.648C201.261 43.152 201.853 44.88 201.853 46.832C201.853 49.648 200.861 51.888 198.877 53.552C196.925 55.184 194.189 56 190.669 56H174.973V22.304H190.141C193.565 22.304 196.237 23.088 198.157 24.656C200.109 26.224 201.085 28.352 201.085 31.04C201.085 33.024 200.557 34.672 199.501 35.984C198.477 37.296 197.101 38.208 195.373 38.72ZM183.181 35.936H188.557C189.901 35.936 190.925 35.648 191.629 35.072C192.365 34.464 192.733 33.584 192.733 32.432C192.733 31.28 192.365 30.4 191.629 29.792C190.925 29.184 189.901 28.88 188.557 28.88H183.181V35.936ZM189.229 49.376C190.605 49.376 191.661 49.072 192.397 48.464C193.165 47.824 193.549 46.912 193.549 45.728C193.549 44.544 193.149 43.616 192.349 42.944C191.581 42.272 190.509 41.936 189.133 41.936H183.181V49.376H189.229ZM224.422 49.664H235.174V56H216.214V22.304H224.422V49.664ZM256.896 22.304V56H248.688V22.304H256.896ZM288.381 56.336C285.213 56.336 282.301 55.6 279.645 54.128C277.021 52.656 274.925 50.608 273.357 47.984C271.821 45.328 271.053 42.352 271.053 39.056C271.053 35.76 271.821 32.8 273.357 30.176C274.925 27.552 277.021 25.504 279.645 24.032C282.301 22.56 285.213 21.824 288.381 21.824C291.549 21.824 294.445 22.56 297.069 24.032C299.725 25.504 301.805 27.552 303.309 30.176C304.845 32.8 305.613 35.76 305.613 39.056C305.613 42.352 304.845 45.328 303.309 47.984C301.773 50.608 299.693 52.656 297.069 54.128C294.445 55.6 291.549 56.336 288.381 56.336ZM288.381 48.848C291.069 48.848 293.213 47.952 294.813 46.16C296.445 44.368 297.261 42 297.261 39.056C297.261 36.08 296.445 33.712 294.813 31.952C293.213 30.16 291.069 29.264 288.381 29.264C285.661 29.264 283.485 30.144 281.853 31.904C280.253 33.664 279.453 36.048 279.453 39.056C279.453 42.032 280.253 44.416 281.853 46.208C283.485 47.968 285.661 48.848 288.381 48.848ZM357.939 22.304V56H349.731V35.792L342.195 56H335.571L327.987 35.744V56H319.779V22.304H329.475L338.931 45.632L348.291 22.304H357.939ZM394.418 50.048H381.842L379.826 56H371.234L383.426 22.304H392.93L405.122 56H396.434L394.418 50.048ZM392.306 43.712L388.13 31.376L384.002 43.712H392.306ZM448.576 56H440.368L426.64 35.216V56H418.432V22.304H426.64L440.368 43.184V22.304H448.576V56ZM472.334 22.304V56H464.126V22.304H472.334ZM508.858 50.048H496.282L494.266 56H485.674L497.866 22.304H507.37L519.562 56H510.874L508.858 50.048ZM506.746 43.712L502.57 31.376L498.442 43.712H506.746Z" fill="#5A5A5A"/>
</svg>
