<svg width="90" height="86" viewBox="0 0 90 86" fill="none" xmlns="http://www.w3.org/2000/svg">
<path d="M0.0301174 23.0301L1.20417 16.6126C1.36528 15.7321 2.13192 15.0932 3.02542 15.0932C3.02913 15.0932 3.03098 15.0932 3.03469 15.0932C3.93281 15.0969 4.69669 15.7441 4.85039 16.6283L15.4122 77.4789L69.2397 77.4807C70.5295 77.4807 71.723 76.9474 72.6036 75.9798C73.6128 74.8678 74.1748 73.2095 74.0396 71.7883C73.6452 68.3633 71.1693 65.8764 68.1564 65.8764H23.2352C22.3324 65.8764 21.5602 65.2254 21.4102 64.3338L10.8938 2.16106C10.803 1.62311 10.953 1.07313 11.3058 0.656467C11.6567 0.23981 12.1743 0 12.7187 0H57.6048C67.8444 0 77.8405 8.3276 79.8895 18.557L89.4801 65.5162C90.343 71.0142 89.0041 76.1826 85.7098 80.0723C82.4746 83.8917 77.7312 85.9954 72.3526 85.9954L71.4953 85.9926C71.4786 85.9926 71.4628 85.9935 71.4443 85.9935C68.5796 85.9963 13.7928 86 13.2215 86C11.1484 86 9.38177 84.5148 9.01511 82.4288L0.0217888 23.6412C-0.0106179 23.4393 -0.00599298 23.231 0.0301174 23.0301Z" fill="#4767ED"/>
</svg>
