<svg width="92" height="92" viewBox="0 0 92 92" fill="none" xmlns="http://www.w3.org/2000/svg">
<rect width="91.5618" height="91.5618" rx="7" fill="black"/>
<path d="M71.4789 28.5515C69.7738 29.3319 67.9811 29.8754 66.1453 30.1684C67.0036 30.0119 68.2665 28.3689 68.7692 27.7039C69.5329 26.7007 70.115 25.5556 70.4858 24.3265C70.4858 24.2353 70.5716 24.1049 70.4858 24.0397C70.4425 24.0146 70.394 24.0014 70.3448 24.0014C70.2955 24.0014 70.247 24.0146 70.2038 24.0397C68.2103 25.1877 66.0888 26.064 63.8893 26.6476C63.8126 26.6725 63.731 26.6748 63.6533 26.6541C63.5755 26.6334 63.5045 26.5906 63.4479 26.5303C63.2767 26.3135 63.0924 26.1087 62.8961 25.9174C61.999 25.0626 60.9812 24.3629 59.8799 23.8441C58.3933 23.1954 56.7876 22.9145 55.1839 23.0226C53.6279 23.1271 52.1087 23.5709 50.7209 24.3265C49.3542 25.1232 48.1531 26.2054 47.1897 27.5083C46.1763 28.8492 45.4447 30.4054 45.044 32.0722C44.7136 33.6577 44.6761 35.2963 44.9336 36.897C44.9336 37.1708 44.9336 37.2099 44.7129 37.1708C35.9708 35.8016 28.7981 32.5025 22.9372 25.4219C22.6798 25.1089 22.5449 25.1089 22.3365 25.4219C19.7861 29.5425 21.0245 36.0624 24.2124 39.2833C24.6415 39.7136 25.0829 40.1309 25.5489 40.5221C24.0872 40.4117 22.6613 39.9904 21.3556 39.2833C21.1103 39.1137 20.9755 39.205 20.9632 39.518C20.9285 39.9519 20.9285 40.3881 20.9632 40.822C21.219 42.9013 21.9896 44.8711 23.196 46.5298C24.4024 48.1886 26.0013 49.4768 27.8294 50.2628C28.2751 50.4658 28.7394 50.6188 29.2149 50.7192C27.8618 51.0025 26.474 51.0466 25.1075 50.8496C24.8132 50.7844 24.7028 50.9539 24.8132 51.2539C26.6156 56.4698 30.5269 58.0607 33.396 58.9474C33.7883 59.0126 34.1807 59.0126 34.6221 59.1169C34.6221 59.1169 34.6221 59.1169 34.5485 59.1951C33.7025 60.8382 30.2816 61.9465 28.7122 62.5203C25.8476 63.6146 22.7934 64.0329 19.7616 63.746C19.2834 63.6678 19.1731 63.6808 19.0505 63.746C18.9279 63.8112 19.0505 63.9547 19.1854 64.0851C19.7984 64.5154 20.4115 64.8936 21.049 65.2587C22.9471 66.3597 24.9538 67.2343 27.0325 67.8666C37.7977 71.0223 49.9117 68.7012 57.9917 60.1601C64.343 53.4576 66.5745 44.2123 66.5745 34.954C66.5745 34.602 66.9791 34.3933 67.2121 34.2108C68.8189 32.8793 70.2355 31.3068 71.4176 29.5425C71.6223 29.2795 71.7273 28.9447 71.7119 28.6036V28.6036C71.7119 28.408 71.7119 28.4471 71.4789 28.5515Z" fill="white"/>
</svg>
