<svg width="18" height="19" viewBox="0 0 18 19" fill="none" xmlns="http://www.w3.org/2000/svg">
<path d="M13.3184 4.49336H13.125V4.3C13.082 3.19714 12.6595 2.26615 11.8574 1.50703C11.0553 0.747919 10.1029 0.368362 9 0.368362C7.85417 0.368362 6.88021 0.769403 6.07812 1.57149C5.27604 2.37357 4.875 3.34753 4.875 4.49336H4.68164C4.05143 4.49336 3.45703 4.60795 2.89844 4.83711C2.33984 5.0806 1.85286 5.40645 1.4375 5.81465C1.02214 6.22285 0.69987 6.70625 0.470703 7.26485C0.227214 7.82344 0.105469 8.425 0.105469 9.06953V14.1184C0.105469 14.7486 0.227214 15.343 0.470703 15.9016C0.69987 16.4602 1.02214 16.9471 1.4375 17.3625C1.85286 17.7779 2.33984 18.1001 2.89844 18.3293C3.45703 18.5728 4.05143 18.6945 4.68164 18.6945H13.4043C14.0488 18.6945 14.6504 18.5728 15.209 18.3293C15.7533 18.1001 16.2331 17.7779 16.6484 17.3625C17.0638 16.9471 17.3932 16.4602 17.6367 15.9016C17.8659 15.343 17.9805 14.7486 17.9805 14.1184V9.06953C17.9805 8.45365 17.8587 7.86641 17.6152 7.30782C17.3717 6.74922 17.0387 6.26224 16.6162 5.84688C16.1937 5.43151 15.696 5.10209 15.123 4.8586C14.5501 4.61511 13.9486 4.49336 13.3184 4.49336ZM6.25 4.38594C6.29297 3.65547 6.57943 3.04675 7.10938 2.55977C7.63932 2.07279 8.26953 1.8293 9 1.8293C9.77344 1.8293 10.4251 2.09069 10.9551 2.61348C11.485 3.13627 11.75 3.79154 11.75 4.5793H6.25V4.38594ZM16.6055 14.1184C16.6055 14.9777 16.2904 15.7261 15.6602 16.3635C15.0299 17.0008 14.278 17.3195 13.4043 17.3195H4.68164C3.82227 17.3195 3.07389 17.0008 2.43652 16.3635C1.79915 15.7261 1.48047 14.9777 1.48047 14.1184V9.06953C1.48047 8.19584 1.79915 7.44388 2.43652 6.81367C3.07389 6.18347 3.82227 5.86836 4.68164 5.86836H4.875V7.41524C4.875 7.60144 4.94661 7.74108 5.08984 7.83418C5.23307 7.92728 5.3763 7.97383 5.51953 7.97383C5.70573 8.0168 5.87402 7.96667 6.02441 7.82344C6.1748 7.68021 6.25 7.5155 6.25 7.3293V5.86836H11.75V7.41524C11.75 7.60144 11.8216 7.74108 11.9648 7.83418C12.1081 7.92728 12.2513 7.97383 12.3945 7.97383C12.5807 7.97383 12.749 7.90938 12.8994 7.78047C13.0498 7.65157 13.125 7.47253 13.125 7.24336V5.86836H13.3184C14.1777 5.86836 14.9261 6.18347 15.5635 6.81367C16.2008 7.44388 16.5195 8.19584 16.5195 9.06953V14.1184H16.6055Z" fill="black"/>
</svg>
