<svg width="22" height="23" viewBox="0 0 22 23" fill="none" xmlns="http://www.w3.org/2000/svg">
<path d="M19.0354 7.5461C19.1356 7.41719 19.1822 7.2668 19.175 7.09492C19.1679 6.92305 19.0998 6.77266 18.9709 6.64375L15.2112 2.90547L15.1467 2.84102C15.0035 2.74076 14.8495 2.69779 14.6848 2.71211C14.5201 2.72644 14.3733 2.79089 14.2444 2.90547L14.1799 2.99141C14.0797 3.12032 14.0367 3.27071 14.051 3.44258C14.0653 3.61446 14.1298 3.76485 14.2444 3.89375L16.8225 6.45039H5.99437H5.90843C5.73656 6.47904 5.59333 6.55782 5.47874 6.68672C5.36416 6.81563 5.30687 6.96602 5.30687 7.13789C5.30687 7.32409 5.3749 7.48522 5.51097 7.62129C5.64704 7.75736 5.80817 7.82539 5.99437 7.82539H16.8225L14.2444 10.382L14.1799 10.468C14.0797 10.5969 14.0367 10.7473 14.051 10.9191C14.0653 11.091 14.1298 11.2342 14.2444 11.3488C14.3733 11.4921 14.5344 11.5637 14.7278 11.5637C14.9211 11.5637 15.0823 11.4992 15.2112 11.3703L18.9709 7.61055C18.9853 7.61055 18.996 7.60339 19.0032 7.58907C19.0103 7.57474 19.0211 7.56042 19.0354 7.5461ZM16.092 16.9133C16.2639 16.899 16.4071 16.8273 16.5217 16.6984C16.6363 16.5695 16.6936 16.412 16.6936 16.2258C16.6936 16.0396 16.6256 15.8785 16.4895 15.7424C16.3534 15.6063 16.1923 15.5383 16.0061 15.5383H5.17796L7.75609 12.9816L7.82054 12.9172C7.9208 12.774 7.96735 12.6164 7.96019 12.4445C7.95303 12.2727 7.88499 12.1294 7.75609 12.0148C7.62718 11.8859 7.46605 11.8179 7.27269 11.8107C7.07933 11.8036 6.9182 11.8716 6.78929 12.0148L3.02952 15.7531C3.0152 15.7675 3.00446 15.7782 2.9973 15.7854C2.99014 15.7925 2.97939 15.8033 2.96507 15.8176C2.86481 15.9608 2.81826 16.1184 2.82542 16.2902C2.83258 16.4621 2.90062 16.6053 3.02952 16.7199L6.78929 20.4582L6.85374 20.5227C6.99697 20.6229 7.15452 20.6695 7.3264 20.6623C7.49827 20.6551 7.6415 20.5871 7.75609 20.4582C7.88499 20.3293 7.94945 20.1682 7.94945 19.9748C7.94945 19.7814 7.88499 19.6203 7.75609 19.4914L5.17796 16.9133H16.0061H16.092Z" fill="black"/>
</svg>
