<svg width="21" height="20" viewBox="0 0 21 20" fill="none" xmlns="http://www.w3.org/2000/svg">
<path d="M6.68164 0.209183H3.76172C2.98307 0.209183 2.31299 0.489944 1.75146 1.05147C1.18994 1.61299 0.90918 2.29056 0.90918 3.08418V6.02657C0.90918 6.82019 1.18994 7.49776 1.75146 8.05928C2.31299 8.6208 2.98307 8.90157 3.76172 8.90157H6.68164C7.47526 8.90157 8.14909 8.6208 8.70312 8.05928C9.25716 7.49776 9.53418 6.82019 9.53418 6.02657V3.08418C9.53418 2.29056 9.25716 1.61299 8.70312 1.05147C8.14909 0.489944 7.47526 0.209183 6.68164 0.209183ZM3.76172 1.55684H6.68164C7.10091 1.55684 7.45654 1.70658 7.74854 2.00606C8.04053 2.30554 8.18652 2.66491 8.18652 3.08418V6.02657C8.18652 6.44584 8.04053 6.80521 7.74854 7.10469C7.45654 7.40417 7.10091 7.55391 6.68164 7.55391H3.76172C3.34245 7.55391 2.98682 7.40417 2.69482 7.10469C2.40283 6.80521 2.25684 6.44584 2.25684 6.02657V3.08418C2.25684 2.66491 2.40283 2.30554 2.69482 2.00606C2.98682 1.70658 3.34245 1.55684 3.76172 1.55684ZM17.2383 0.209183H14.3184C13.5247 0.209183 12.8509 0.489944 12.2969 1.05147C11.7428 1.61299 11.4658 2.29056 11.4658 3.08418V6.02657C11.4658 6.82019 11.7428 7.49776 12.2969 8.05928C12.8509 8.6208 13.5247 8.90157 14.3184 8.90157H17.2383C18.0169 8.90157 18.687 8.6208 19.2485 8.05928C19.8101 7.49776 20.0908 6.82019 20.0908 6.02657V3.08418C20.0908 2.29056 19.8101 1.61299 19.2485 1.05147C18.687 0.489944 18.0169 0.209183 17.2383 0.209183ZM14.3184 1.55684H17.2383C17.6576 1.55684 18.0132 1.70658 18.3052 2.00606C18.5972 2.30554 18.7432 2.66491 18.7432 3.08418V6.02657C18.7432 6.44584 18.5972 6.80521 18.3052 7.10469C18.0132 7.40417 17.6576 7.55391 17.2383 7.55391H14.3184C13.8991 7.55391 13.5435 7.40417 13.2515 7.10469C12.9595 6.80521 12.8135 6.44584 12.8135 6.02657V3.08418C12.8135 2.66491 12.9595 2.30554 13.2515 2.00606C13.5435 1.70658 13.8991 1.55684 14.3184 1.55684ZM3.76172 10.6984H6.68164C7.47526 10.6984 8.14909 10.9792 8.70312 11.5407C9.25716 12.1022 9.53418 12.7798 9.53418 13.5734V16.5158C9.53418 17.3094 9.25716 17.987 8.70312 18.5485C8.14909 19.1101 7.47526 19.3908 6.68164 19.3908H3.76172C2.98307 19.3908 2.31299 19.1101 1.75146 18.5485C1.18994 17.987 0.90918 17.3094 0.90918 16.5158V13.5734C0.90918 12.7798 1.18994 12.1022 1.75146 11.5407C2.31299 10.9792 2.98307 10.6984 3.76172 10.6984ZM6.68164 12.0461H3.76172C3.34245 12.0461 2.98682 12.1958 2.69482 12.4953C2.40283 12.7948 2.25684 13.1542 2.25684 13.5734V16.5158C2.25684 16.9351 2.40283 17.2945 2.69482 17.5939C2.98682 17.8934 3.34245 18.0432 3.76172 18.0432H6.68164C7.10091 18.0432 7.45654 17.8934 7.74854 17.5939C8.04053 17.2945 8.18652 16.9351 8.18652 16.5158V13.5734C8.18652 13.1542 8.04053 12.7948 7.74854 12.4953C7.45654 12.1958 7.10091 12.0461 6.68164 12.0461ZM17.2383 10.6984H14.3184C13.5247 10.6984 12.8509 10.9792 12.2969 11.5407C11.7428 12.1022 11.4658 12.7798 11.4658 13.5734V16.5158C11.4658 17.3094 11.7428 17.987 12.2969 18.5485C12.8509 19.1101 13.5247 19.3908 14.3184 19.3908H17.2383C18.0169 19.3908 18.687 19.1101 19.2485 18.5485C19.8101 17.987 20.0908 17.3094 20.0908 16.5158V13.5734C20.0908 12.7798 19.8101 12.1022 19.2485 11.5407C18.687 10.9792 18.0169 10.6984 17.2383 10.6984ZM14.3184 12.0461H17.2383C17.6576 12.0461 18.0132 12.1958 18.3052 12.4953C18.5972 12.7948 18.7432 13.1542 18.7432 13.5734V16.5158C18.7432 16.9351 18.5972 17.2945 18.3052 17.5939C18.0132 17.8934 17.6576 18.0432 17.2383 18.0432H14.3184C13.8991 18.0432 13.5435 17.8934 13.2515 17.5939C12.9595 17.2945 12.8135 16.9351 12.8135 16.5158V13.5734C12.8135 13.1542 12.9595 12.7948 13.2515 12.4953C13.5435 12.1958 13.8991 12.0461 14.3184 12.0461Z" fill="#0BAF9A"/>
</svg>
