<svg width="20" height="18" viewBox="0 0 20 18" fill="none" xmlns="http://www.w3.org/2000/svg">
<path d="M4.95128 0.378128C4.10623 0.650263 3.38292 1.07279 2.78136 1.64571C2.17979 2.2043 1.7143 2.85599 1.38487 3.60078C1.05544 4.34558 0.876408 5.15482 0.847762 6.02852C0.804794 6.90222 0.926538 7.77591 1.213 8.64961C1.49946 9.46602 1.87185 10.243 2.33018 10.9807C2.78852 11.7183 3.32563 12.3879 3.94151 12.9895C4.35688 13.4048 4.78656 13.7987 5.23058 14.1711C5.66026 14.5578 6.10427 14.9302 6.56261 15.2883C7.02094 15.6464 7.4936 15.9901 7.98057 16.3195C8.45323 16.649 8.94021 16.9712 9.44151 17.2863L9.65636 17.4152C9.77094 17.4725 9.8891 17.5012 10.0108 17.5012C10.1326 17.5012 10.2508 17.4725 10.3653 17.4152L10.5802 17.2863C11.0672 16.9712 11.547 16.649 12.0196 16.3195C12.5066 15.9901 12.9793 15.6464 13.4376 15.2883C13.8959 14.9302 14.3399 14.565 14.7696 14.1926C15.2136 13.8059 15.6433 13.412 16.0587 13.0109C16.6746 12.3951 17.2153 11.7219 17.6808 10.9914C18.1463 10.2609 18.5151 9.48034 18.7872 8.64961C19.0737 7.77591 19.1954 6.90222 19.1525 6.02852C19.1238 5.15482 18.9448 4.34558 18.6153 3.60078C18.2859 2.85599 17.8204 2.2043 17.2189 1.64571C16.6173 1.07279 15.894 0.650263 15.0489 0.378128L14.8126 0.313675C14.0392 0.0988312 13.2586 0.0415401 12.4708 0.1418C11.683 0.24206 10.9383 0.48555 10.2364 0.872269L10.0001 1.02266L9.76378 0.872269C9.03331 0.456903 8.24913 0.206253 7.41124 0.120316C6.57335 0.0343781 5.75336 0.120316 4.95128 0.378128ZM9.42003 2.24727L9.61339 2.37617C9.72797 2.46211 9.85688 2.50508 10.0001 2.50508C10.1433 2.50508 10.2794 2.46211 10.4083 2.37617C11.0099 1.91784 11.6866 1.62422 12.4386 1.49532C13.1905 1.36641 13.9246 1.41654 14.6407 1.64571C15.2996 1.86055 15.8582 2.18998 16.3165 2.63399C16.7892 3.078 17.1508 3.5972 17.4015 4.1916C17.6521 4.78601 17.7918 5.42696 17.8204 6.11446C17.8491 6.81628 17.7488 7.52526 17.5196 8.24141C17.2761 8.95755 16.9503 9.63789 16.5421 10.2824C16.1339 10.927 15.6648 11.5142 15.1349 12.0441L14.6407 12.4953C13.9962 13.1112 13.3194 13.6913 12.6105 14.2355C11.9015 14.7798 11.1746 15.2954 10.4298 15.7824L10.0001 16.0402L10.129 16.1262C9.1837 15.5533 8.27061 14.923 7.38975 14.2355C6.50889 13.548 5.66742 12.8176 4.86534 12.0441C4.33539 11.5142 3.86632 10.9234 3.45811 10.2717C3.04991 9.61999 2.72406 8.93607 2.48057 8.21992C2.25141 7.5181 2.15115 6.81628 2.17979 6.11446C2.20844 5.42696 2.34809 4.78601 2.59874 4.1916C2.84939 3.5972 3.21104 3.078 3.6837 2.63399C4.14203 2.18998 4.70063 1.86055 5.35948 1.64571C6.04698 1.43086 6.7488 1.37715 7.46495 1.48457C8.1811 1.592 8.83279 1.84623 9.42003 2.24727ZM13.545 3.75117C13.3732 3.69388 13.2049 3.70821 13.0401 3.79414C12.8754 3.88008 12.7644 4.00899 12.7071 4.18086C12.6498 4.35274 12.6642 4.52103 12.7501 4.68575C12.836 4.85046 12.9649 4.96146 13.1368 5.01875C13.4806 5.13334 13.767 5.33386 13.9962 5.62032C14.2254 5.90677 14.3543 6.2362 14.3829 6.6086C14.3972 6.7948 14.476 6.94519 14.6192 7.05977C14.7625 7.17435 14.9272 7.22448 15.1134 7.21016C15.2996 7.19584 15.4536 7.11706 15.5753 6.97383C15.697 6.8306 15.7436 6.66589 15.7149 6.47969C15.672 5.84948 15.45 5.28373 15.0489 4.78242C14.6479 4.28112 14.1466 3.93737 13.545 3.75117Z" fill="black"/>
</svg>
