<svg width="16" height="19" viewBox="0 0 16 19" fill="none" xmlns="http://www.w3.org/2000/svg">
<path d="M8.02148 0.626175C6.96159 0.626175 5.96615 0.819534 5.03516 1.20625C4.10417 1.60729 3.28776 2.14799 2.58594 2.82832C1.88411 3.50866 1.31836 4.30716 0.888672 5.22383C0.473307 6.15482 0.251302 7.1431 0.222656 8.18867L0.201172 8.44649C0.244141 9.47774 0.4375 10.4732 0.78125 11.4328C1.125 12.3925 1.60482 13.2805 2.2207 14.0969L2.5 14.4836C3.08724 15.2284 3.73177 15.9266 4.43359 16.5783C5.13542 17.23 5.88021 17.828 6.66797 18.3723L7.0332 18.6301L7.09766 18.673C7.36979 18.8736 7.67057 18.9738 8 18.9738C8.32943 18.9738 8.63021 18.8736 8.90234 18.673L8.94531 18.6301C9.57552 18.229 10.1771 17.7922 10.75 17.3195C11.3229 16.8469 11.8672 16.3384 12.3828 15.7941C12.9128 15.2499 13.3854 14.6841 13.8008 14.0969C14.2161 13.5096 14.5671 12.9117 14.8535 12.3029C15.14 11.6942 15.3691 11.0747 15.541 10.4445C15.6986 9.82865 15.7845 9.2056 15.7988 8.57539V8.46797C15.7988 7.40808 15.6055 6.41263 15.2188 5.48164C14.8177 4.55065 14.277 3.73067 13.5967 3.02168C12.9163 2.3127 12.1178 1.75052 11.2012 1.33516C10.2845 0.905472 9.30339 0.676306 8.25781 0.647659L8.02148 0.626175ZM8.02148 2.02266C8.88086 2.02266 9.69727 2.18737 10.4707 2.5168C11.2298 2.84623 11.8958 3.29024 12.4688 3.84883C13.0417 4.40742 13.5 5.06628 13.8438 5.82539C14.1875 6.58451 14.3737 7.39375 14.4023 8.25313V8.55391C14.388 9.08386 14.3164 9.6138 14.1875 10.1438C14.0443 10.688 13.8438 11.2251 13.5859 11.7551C13.3281 12.285 13.013 12.8078 12.6406 13.3234C12.2682 13.8391 11.8457 14.3475 11.373 14.8488C10.9004 15.3358 10.3955 15.8013 9.8584 16.2453C9.32129 16.6893 8.76628 17.0975 8.19336 17.4699L8.10742 17.5344C8.07878 17.563 8.04297 17.5773 8 17.5773C7.95703 17.5773 7.92122 17.563 7.89258 17.5344L7.80664 17.4699C6.94727 16.9113 6.1416 16.2775 5.38965 15.5686C4.6377 14.8596 3.94661 14.0897 3.31641 13.259C2.8151 12.6001 2.42122 11.8876 2.13477 11.1213C1.84831 10.355 1.67643 9.56367 1.61914 8.74727L1.59766 8.425C1.59766 7.5513 1.76237 6.7349 2.0918 5.97578C2.4069 5.21667 2.84733 4.54707 3.41309 3.967C3.97884 3.38692 4.63411 2.925 5.37891 2.58125C6.13802 2.2375 6.94727 2.05131 7.80664 2.02266H8.02148ZM8 5.58907C7.18359 5.58907 6.48535 5.8791 5.90527 6.45918C5.3252 7.03926 5.03516 7.7375 5.03516 8.55391C5.03516 9.38464 5.3252 10.09 5.90527 10.6701C6.48535 11.2502 7.18359 11.5402 8 11.5402C8.81641 11.5402 9.51465 11.2502 10.0947 10.6701C10.6748 10.09 10.9648 9.38464 10.9648 8.55391C10.9648 7.7375 10.6748 7.03926 10.0947 6.45918C9.51465 5.8791 8.81641 5.58907 8 5.58907ZM8 6.98555C8.42969 6.98555 8.80208 7.13952 9.11719 7.44746C9.43229 7.75541 9.58984 8.12422 9.58984 8.55391C9.58984 8.99792 9.43229 9.3739 9.11719 9.68184C8.80208 9.98978 8.42969 10.1438 8 10.1438C7.57031 10.1438 7.19792 9.98978 6.88281 9.68184C6.56771 9.3739 6.41016 8.99792 6.41016 8.55391C6.41016 8.12422 6.56771 7.75541 6.88281 7.44746C7.19792 7.13952 7.57031 6.98555 8 6.98555Z" fill="#222222"/>
</svg>
