<svg width="22" height="22" viewBox="0 0 22 22" fill="none" xmlns="http://www.w3.org/2000/svg">
<path d="M10.855 0.375206C9.47152 0.375206 8.17757 0.635622 6.97314 1.15646C5.75244 1.66101 4.69043 2.35681 3.78711 3.24386C2.88379 4.1309 2.17171 5.1685 1.65088 6.35665C1.11377 7.5448 0.845215 8.81433 0.845215 10.1652C0.845215 11.5162 1.11377 12.7857 1.65088 13.9738C2.17171 15.1783 2.88379 16.2199 3.78711 17.0988C4.69043 17.9777 5.75244 18.6776 6.97314 19.1984C8.17757 19.703 9.47152 19.9553 10.855 19.9553C12.0431 19.9553 13.1702 19.7681 14.2363 19.3938C15.3024 19.0194 16.2586 18.4986 17.105 17.8313L20.3765 21.0051L20.4497 21.0783C20.6125 21.176 20.7874 21.2207 20.9746 21.2126C21.1618 21.2045 21.3205 21.1353 21.4507 21.0051C21.6134 20.8586 21.6948 20.6796 21.6948 20.468C21.6948 20.2564 21.6134 20.0774 21.4507 19.9309L18.2524 16.7815C19.0662 15.9188 19.7091 14.9219 20.1812 13.7907C20.6532 12.6595 20.8892 11.4511 20.8892 10.1652C20.8892 8.81433 20.6206 7.5448 20.0835 6.35665C19.5627 5.1685 18.8506 4.1309 17.9473 3.24386C17.0439 2.35681 15.9819 1.66101 14.7612 1.15646C13.5405 0.635622 12.2384 0.375206 10.855 0.375206ZM10.855 1.88888C12.0269 1.88888 13.1255 2.1086 14.1509 2.54806C15.1925 2.97123 16.0959 3.56124 16.8608 4.31808C17.6258 5.07491 18.228 5.94975 18.6675 6.94259C19.1069 7.9517 19.3267 9.02592 19.3267 10.1652C19.3267 11.3208 19.1069 12.3951 18.6675 13.3879C18.228 14.397 17.6258 15.2759 16.8608 16.0246C16.0959 16.7733 15.1925 17.3674 14.1509 17.8068C13.1255 18.2463 12.0269 18.466 10.855 18.466C9.69938 18.466 8.60075 18.2463 7.55908 17.8068C6.53369 17.3674 5.63851 16.7733 4.87354 16.0246C4.10856 15.2759 3.50635 14.397 3.06689 13.3879C2.61117 12.3951 2.3833 11.3208 2.3833 10.1652C2.3833 9.02592 2.61117 7.9517 3.06689 6.94259C3.50635 5.94975 4.10856 5.07491 4.87354 4.31808C5.63851 3.56124 6.53369 2.97123 7.55908 2.54806C8.60075 2.1086 9.69938 1.88888 10.855 1.88888Z" fill="#4A5568"/>
</svg>
